<svg id="eA403gX7pqm1" xmlns="http://www.w3.org/2000/svg" xmlns:xlink="http://www.w3.org/1999/xlink" viewBox="0 0 1300 800" shape-rendering="geometricPrecision" text-rendering="geometricPrecision" width="1300" height="800" style="background-color:#e3e7eb"><style><![CDATA[#eA403gX7pqm45_to {animation: eA403gX7pqm45_to__to 8000ms linear infinite normal forwards}@keyframes eA403gX7pqm45_to__to { 0% {transform: translate(149.999984px,296.919236px)} 56.25% {transform: translate(149.999984px,296.919236px);animation-timing-function: cubic-bezier(0.215,0.61,0.355,1)} 61.25% {transform: translate(350.166489px,230.189539px)} 100% {transform: translate(350.166489px,230.189539px)}} #eA403gX7pqm45_ts {animation: eA403gX7pqm45_ts__ts 8000ms linear infinite normal forwards}@keyframes eA403gX7pqm45_ts__ts { 0% {transform: scale(1,1)} 56.25% {transform: scale(1,1);animation-timing-function: cubic-bezier(0.215,0.61,0.355,1)} 61.25% {transform: scale(0.669349,0.669349)} 100% {transform: scale(0.669349,0.669349)}} #eA403gX7pqm45 {animation: eA403gX7pqm45_c_o 8000ms linear infinite normal forwards}@keyframes eA403gX7pqm45_c_o { 0% {opacity: 1} 63.75% {opacity: 1;animation-timing-function: cubic-bezier(0.42,0,0.58,1)} 72.5% {opacity: 0.17;animation-timing-function: cubic-bezier(0.42,0,0.58,1)} 78.75% {opacity: 0.17;animation-timing-function: cubic-bezier(0.42,0,0.58,1)} 88.75% {opacity: 1} 100% {opacity: 1}} #eA403gX7pqm46 {animation: eA403gX7pqm46_c_o 8000ms linear infinite normal forwards}@keyframes eA403gX7pqm46_c_o { 0% {opacity: 0} 56.25% {opacity: 0;animation-timing-function: cubic-bezier(0.215,0.61,0.355,1)} 61.25% {opacity: 1} 100% {opacity: 1}} #eA403gX7pqm48_to {animation: eA403gX7pqm48_to__to 8000ms linear infinite normal forwards}@keyframes eA403gX7pqm48_to__to { 0% {transform: translate(149.999984px,296.919236px)} 56.25% {transform: translate(149.999984px,296.919236px);animation-timing-function: cubic-bezier(0.215,0.61,0.355,1)} 61.25% {transform: translate(350.166489px,230.189539px)} 63.75% {transform: translate(350.166489px,230.189539px);animation-timing-function: cubic-bezier(0.42,0,0.58,1)} 72.5% {transform: translate(350.166489px,170.189539px);animation-timing-function: cubic-bezier(0.42,0,0.58,1)} 78.75% {transform: translate(350.166489px,170.189539px);animation-timing-function: cubic-bezier(0.42,0,0.58,1)} 88.75% {transform: translate(350.166489px,230.189539px)} 100% {transform: translate(350.166489px,230.189539px)}} #eA403gX7pqm48_tr {animation: eA403gX7pqm48_tr__tr 8000ms linear infinite normal forwards}@keyframes eA403gX7pqm48_tr__tr { 0% {transform: rotate(0deg)} 66.25% {transform: rotate(0deg);animation-timing-function: cubic-bezier(0.42,0,0.58,1)} 70% {transform: rotate(-3deg);animation-timing-function: cubic-bezier(0.42,0,0.58,1)} 76.25% {transform: rotate(2deg);animation-timing-function: cubic-bezier(0.42,0,0.58,1)} 80% {transform: rotate(-1deg);animation-timing-function: cubic-bezier(0.42,0,0.58,1)} 82.5% {transform: rotate(0deg)} 100% {transform: rotate(0deg)}} #eA403gX7pqm48_ts {animation: eA403gX7pqm48_ts__ts 8000ms linear infinite normal forwards}@keyframes eA403gX7pqm48_ts__ts { 0% {transform: scale(1,1)} 56.25% {transform: scale(1,1);animation-timing-function: cubic-bezier(0.215,0.61,0.355,1)} 61.25% {transform: scale(0.669349,0.669349)} 100% {transform: scale(0.669349,0.669349)}} #eA403gX7pqm49 {animation: eA403gX7pqm49_c_o 8000ms linear infinite normal forwards}@keyframes eA403gX7pqm49_c_o { 0% {opacity: 0} 56.25% {opacity: 0;animation-timing-function: cubic-bezier(0.215,0.61,0.355,1)} 63.75% {opacity: 1} 100% {opacity: 1}} #eA403gX7pqm78_ts {animation: eA403gX7pqm78_ts__ts 8000ms linear infinite normal forwards}@keyframes eA403gX7pqm78_ts__ts { 0% {transform: translate(350.000008px,220.000008px) scale(1,1)} 40% {transform: translate(350.000008px,220.000008px) scale(1,1);animation-timing-function: cubic-bezier(0.42,0,0.205,0.995)} 46.25% {transform: translate(350.000008px,220.000008px) scale(1.000001,0.25)} 100% {transform: translate(350.000008px,220.000008px) scale(1.000001,0.25)}} #eA403gX7pqm79_tr {animation: eA403gX7pqm79_tr__tr 8000ms linear infinite normal forwards}@keyframes eA403gX7pqm79_tr__tr { 0% {transform: translate(349.999992px,219.999977px) rotate(0deg)} 18.75% {transform: translate(349.999992px,219.999977px) rotate(0deg);animation-timing-function: cubic-bezier(0.42,0,0.205,0.995)} 37.5% {transform: translate(349.999992px,219.999977px) rotate(720deg)} 56.25% {transform: translate(349.999992px,219.999977px) rotate(720deg);animation-timing-function: cubic-bezier(0.42,0,1,1)} 68.75% {transform: translate(349.999992px,219.999977px) rotate(1800deg)} 83.75% {transform: translate(349.999992px,219.999977px) rotate(3240deg);animation-timing-function: cubic-bezier(0,0,0.58,1)} 93.75% {transform: translate(349.999992px,219.999977px) rotate(3600deg)} 100% {transform: translate(349.999992px,219.999977px) rotate(3600deg)}} #eA403gX7pqm82 {animation: eA403gX7pqm82_c_o 8000ms linear infinite normal forwards}@keyframes eA403gX7pqm82_c_o { 0% {opacity: 0} 56.25% {opacity: 0;animation-timing-function: cubic-bezier(0.215,0.61,0.355,1)} 63.75% {opacity: 1} 100% {opacity: 1}} #eA403gX7pqm83 {animation: eA403gX7pqm83_c_o 8000ms linear infinite normal forwards}@keyframes eA403gX7pqm83_c_o { 0% {opacity: 0} 56.25% {opacity: 0;animation-timing-function: cubic-bezier(0.215,0.61,0.355,1)} 63.75% {opacity: 1} 100% {opacity: 1}} #eA403gX7pqm84_tr {animation: eA403gX7pqm84_tr__tr 8000ms linear infinite normal forwards}@keyframes eA403gX7pqm84_tr__tr { 0% {transform: translate(349.999992px,219.999977px) rotate(720deg)} 56.25% {transform: translate(349.999992px,219.999977px) rotate(720deg);animation-timing-function: cubic-bezier(0.42,0,1,1)} 68.75% {transform: translate(349.999992px,219.999977px) rotate(1800deg)} 83.75% {transform: translate(349.999992px,219.999977px) rotate(3240deg);animation-timing-function: cubic-bezier(0,0,0.58,1)} 93.75% {transform: translate(349.999992px,219.999977px) rotate(3600deg)} 100% {transform: translate(349.999992px,219.999977px) rotate(3600deg)}} #eA403gX7pqm88 {animation: eA403gX7pqm88_c_o 8000ms linear infinite normal forwards}@keyframes eA403gX7pqm88_c_o { 0% {opacity: 0} 36.875% {opacity: 0;animation-timing-function: step-end} 37.5% {opacity: 1} 50% {opacity: 1;animation-timing-function: cubic-bezier(0.215,0.61,0.355,1)} 55% {opacity: 0} 100% {opacity: 0}} #eA403gX7pqm89_to {animation: eA403gX7pqm89_to__to 8000ms linear infinite normal forwards}@keyframes eA403gX7pqm89_to__to { 0% {transform: translate(149.969995px,152.26px)} 40% {transform: translate(149.969995px,152.26px);animation-timing-function: cubic-bezier(0.42,0,0.205,0.995)} 46.25% {transform: translate(149.969995px,187.107267px)} 100% {transform: translate(149.969995px,187.107267px)}} #eA403gX7pqm90_ts {animation: eA403gX7pqm90_ts__ts 8000ms linear infinite normal forwards}@keyframes eA403gX7pqm90_ts__ts { 0% {transform: translate(149.999996px,220.000005px) scale(1,1)} 40% {transform: translate(149.999996px,220.000005px) scale(1,1);animation-timing-function: cubic-bezier(0.42,0,0.205,0.995)} 46.25% {transform: translate(149.999996px,220.000005px) scale(1,0.538259)} 100% {transform: translate(149.999996px,220.000005px) scale(1,0.538259)}} #eA403gX7pqm91_to {animation: eA403gX7pqm91_to__to 8000ms linear infinite normal forwards}@keyframes eA403gX7pqm91_to__to { 0% {transform: translate(150px,287.75px)} 40% {transform: translate(150px,287.75px);animation-timing-function: cubic-bezier(0.42,0,0.205,0.995)} 46.25% {transform: translate(150px,252.902733px)} 100% {transform: translate(150px,252.902733px)}} #eA403gX7pqm92_to {animation: eA403gX7pqm92_to__to 8000ms linear infinite normal forwards}@keyframes eA403gX7pqm92_to__to { 0% {transform: translate(350.000003px,220.000027px)} 40% {transform: translate(350.000003px,220.000027px);animation-timing-function: cubic-bezier(0.42,0,0.205,0.995)} 46.25% {transform: translate(350.000003px,308.55704px)} 100% {transform: translate(350.000003px,308.55704px)}} #eA403gX7pqm92 {animation: eA403gX7pqm92_c_o 8000ms linear infinite normal forwards}@keyframes eA403gX7pqm92_c_o { 0% {opacity: 0} 36.875% {opacity: 0;animation-timing-function: step-end} 37.5% {opacity: 1} 55% {opacity: 1;animation-timing-function: step-end} 55.625% {opacity: 0} 100% {opacity: 0}} #eA403gX7pqm93 {animation: eA403gX7pqm93__sz 8000ms linear infinite normal forwards}@keyframes eA403gX7pqm93__sz { 0% {width: 109.476732px;height: 109.476732px} 40% {width: 109.476732px;height: 109.476732px;animation-timing-function: cubic-bezier(0.42,0,0.205,0.995)} 46.25% {width: 109.476732px;height: 27.793439px} 100% {width: 109.476732px;height: 27.793439px}} #eA403gX7pqm96_to {animation: eA403gX7pqm96_to__to 8000ms linear infinite normal forwards}@keyframes eA403gX7pqm96_to__to { 0% {transform: translate(322.668989px,306.652575px)} 40% {transform: translate(322.668989px,306.652575px);animation-timing-function: cubic-bezier(0.42,0,0.205,0.995)} 46.25% {transform: translate(322.668991px,225.033192px)} 100% {transform: translate(322.668991px,225.033192px)}} #eA403gX7pqm104_to {animation: eA403gX7pqm104_to__to 8000ms linear infinite normal forwards}@keyframes eA403gX7pqm104_to__to { 0% {transform: translate(377.407355px,251.914209px)} 40% {transform: translate(377.407355px,251.914209px);animation-timing-function: cubic-bezier(0.42,0,0.205,0.995)} 46.25% {transform: translate(377.407355px,211.430923px)} 100% {transform: translate(377.407355px,211.430923px)}} #eA403gX7pqm105_to {animation: eA403gX7pqm105_to__to 8000ms linear infinite normal forwards}@keyframes eA403gX7pqm105_to__to { 0% {transform: translate(268.113085px,251.914205px)} 40% {transform: translate(268.113085px,251.914205px);animation-timing-function: cubic-bezier(0.42,0,0.205,0.995)} 46.25% {transform: translate(268.113085px,211.430919px)} 100% {transform: translate(268.113085px,211.430919px)}} #eA403gX7pqm107_to {animation: eA403gX7pqm107_to__to 8000ms linear infinite normal forwards}@keyframes eA403gX7pqm107_to__to { 0% {transform: translate(322.668989px,251.914209px)} 40% {transform: translate(322.668989px,251.914209px);animation-timing-function: cubic-bezier(0.42,0,0.205,0.995)} 46.25% {transform: translate(322.668989px,211.072563px)} 100% {transform: translate(322.668989px,211.072563px)}}]]></style><defs><radialGradient id="eA403gX7pqm3-fill" cx="0" cy="0" r="0.5" spreadMethod="pad" gradientUnits="objectBoundingBox" gradientTransform="translate(0.5 0.5)"><stop id="eA403gX7pqm3-fill-0" offset="0%" stop-color="#fff"/><stop id="eA403gX7pqm3-fill-1" offset="100%" stop-color="rgba(255,255,255,0)"/></radialGradient><radialGradient id="eA403gX7pqm8-fill" cx="0" cy="0" r="24.97" spreadMethod="pad" gradientUnits="userSpaceOnUse" gradientTransform="translate(472.34 215.4)"><stop id="eA403gX7pqm8-fill-0" offset="53%" stop-color="#dadada"/><stop id="eA403gX7pqm8-fill-1" offset="100%" stop-color="#cacbcc"/></radialGradient><radialGradient id="eA403gX7pqm9-fill" cx="0" cy="0" r="21.18" spreadMethod="pad" gradientUnits="userSpaceOnUse" gradientTransform="translate(474.81 222.45)"><stop id="eA403gX7pqm9-fill-0" offset="53%" stop-color="#bebebe"/><stop id="eA403gX7pqm9-fill-1" offset="100%" stop-color="#b0b0b1"/></radialGradient><linearGradient id="eA403gX7pqm11-fill" x1="483.62" y1="197.14" x2="499.92" y2="197.14" spreadMethod="pad" gradientUnits="userSpaceOnUse" gradientTransform="translate(0 0)"><stop id="eA403gX7pqm11-fill-0" offset="0%" stop-color="rgba(19,12,12,0)"/><stop id="eA403gX7pqm11-fill-1" offset="100%" stop-color="rgba(19,12,12,0.5)"/></linearGradient><radialGradient id="eA403gX7pqm16-fill" cx="0" cy="0" r="7.21" spreadMethod="pad" gradientUnits="userSpaceOnUse" gradientTransform="translate(483.62 176.47)"><stop id="eA403gX7pqm16-fill-0" offset="53%" stop-color="#bebebe"/><stop id="eA403gX7pqm16-fill-1" offset="100%" stop-color="#b0b0b1"/></radialGradient><radialGradient id="eA403gX7pqm19-fill" cx="0" cy="0" r="24.97" spreadMethod="pad" gradientUnits="userSpaceOnUse" gradientTransform="matrix(-1 0 0 1 227.66 215.4)"><stop id="eA403gX7pqm19-fill-0" offset="53%" stop-color="#dadada"/><stop id="eA403gX7pqm19-fill-1" offset="100%" stop-color="#cacbcc"/></radialGradient><radialGradient id="eA403gX7pqm20-fill" cx="0" cy="0" r="21.18" spreadMethod="pad" gradientUnits="userSpaceOnUse" gradientTransform="matrix(-1 0 0 1 225.18 222.45)"><stop id="eA403gX7pqm20-fill-0" offset="53%" stop-color="#bebebe"/><stop id="eA403gX7pqm20-fill-1" offset="100%" stop-color="#b0b0b1"/></radialGradient><linearGradient id="eA403gX7pqm22-fill" x1="216.37" y1="197.14" x2="200.08" y2="197.14" spreadMethod="pad" gradientUnits="userSpaceOnUse" gradientTransform="translate(0 0)"><stop id="eA403gX7pqm22-fill-0" offset="0%" stop-color="rgba(19,12,12,0)"/><stop id="eA403gX7pqm22-fill-1" offset="100%" stop-color="rgba(19,12,12,0.5)"/></linearGradient><radialGradient id="eA403gX7pqm27-fill" cx="0" cy="0" r="7.21" spreadMethod="pad" gradientUnits="userSpaceOnUse" gradientTransform="matrix(-1 0 0 1 216.37 176.47)"><stop id="eA403gX7pqm27-fill-0" offset="53%" stop-color="#bebebe"/><stop id="eA403gX7pqm27-fill-1" offset="100%" stop-color="#b0b0b1"/></radialGradient><linearGradient id="eA403gX7pqm28-fill" x1="350" y1="233.54" x2="350" y2="189.18" spreadMethod="pad" gradientUnits="userSpaceOnUse" gradientTransform="translate(0 0)"><stop id="eA403gX7pqm28-fill-0" offset="6%" stop-color="#e4e0e7"/><stop id="eA403gX7pqm28-fill-1" offset="53%" stop-color="#ededed"/><stop id="eA403gX7pqm28-fill-2" offset="100%" stop-color="#dedddf"/></linearGradient><radialGradient id="eA403gX7pqm30-fill" cx="0" cy="0" r="32.01" spreadMethod="pad" gradientUnits="userSpaceOnUse" gradientTransform="matrix(1 0 0 0.85 420.69 287.684)"><stop id="eA403gX7pqm30-fill-0" offset="53%" stop-color="#dadada"/><stop id="eA403gX7pqm30-fill-1" offset="100%" stop-color="#cacbcc"/></radialGradient><radialGradient id="eA403gX7pqm32-fill" cx="0" cy="0" r="32.01" spreadMethod="pad" gradientUnits="userSpaceOnUse" gradientTransform="matrix(-1 0 0 0.85 274.95 287.684)"><stop id="eA403gX7pqm32-fill-0" offset="53%" stop-color="#dadada"/><stop id="eA403gX7pqm32-fill-1" offset="100%" stop-color="#cacbcc"/></radialGradient><linearGradient id="eA403gX7pqm33-fill" x1="350" y1="255.35" x2="350" y2="225.92" spreadMethod="pad" gradientUnits="userSpaceOnUse" gradientTransform="translate(0 0)"><stop id="eA403gX7pqm33-fill-0" offset="6%" stop-color="#e4e0e7"/><stop id="eA403gX7pqm33-fill-1" offset="53%" stop-color="#ededed"/><stop id="eA403gX7pqm33-fill-2" offset="100%" stop-color="#dedddf"/></linearGradient><linearGradient id="eA403gX7pqm34-fill" x1="350" y1="284.96" x2="350" y2="250.75" spreadMethod="pad" gradientUnits="userSpaceOnUse" gradientTransform="translate(0 0)"><stop id="eA403gX7pqm34-fill-0" offset="40%" stop-color="#bebebe"/><stop id="eA403gX7pqm34-fill-1" offset="100%" stop-color="#979595"/></linearGradient><radialGradient id="eA403gX7pqm36-fill" cx="0" cy="0" r="82.49" spreadMethod="pad" gradientUnits="userSpaceOnUse" gradientTransform="translate(350 237.07)"><stop id="eA403gX7pqm36-fill-0" offset="0%" stop-color="#e4e0e7"/><stop id="eA403gX7pqm36-fill-1" offset="100%" stop-color="#dedddf"/></radialGradient><radialGradient id="eA403gX7pqm37-fill" cx="0" cy="0" r="47.08" spreadMethod="pad" gradientUnits="userSpaceOnUse" gradientTransform="translate(0 0)"><stop id="eA403gX7pqm37-fill-0" offset="53%" stop-color="#dadada"/><stop id="eA403gX7pqm37-fill-1" offset="100%" stop-color="#cacbcc"/></radialGradient><radialGradient id="eA403gX7pqm38-fill" cx="0" cy="0" r="40.8" spreadMethod="pad" gradientUnits="userSpaceOnUse" gradientTransform="translate(0 0)"><stop id="eA403gX7pqm38-fill-0" offset="53%" stop-color="#fafafa"/><stop id="eA403gX7pqm38-fill-1" offset="100%" stop-color="#e8eaeb"/></radialGradient><radialGradient id="eA403gX7pqm44-fill" cx="0" cy="0" r="87.82" spreadMethod="pad" gradientUnits="userSpaceOnUse" gradientTransform="matrix(1.81 0 0 0.25 0.5419 -5.855)"><stop id="eA403gX7pqm44-fill-0" offset="0%" stop-color="rgba(161,160,160,0.38)"/><stop id="eA403gX7pqm44-fill-1" offset="100%" stop-color="rgba(161,160,160,0)"/></radialGradient><radialGradient id="eA403gX7pqm47-fill" cx="0" cy="0" r="87.82" spreadMethod="pad" gradientUnits="userSpaceOnUse" gradientTransform="matrix(1.81 0 0 0.25 0.5419 -5.855)"><stop id="eA403gX7pqm47-fill-0" offset="0%" stop-color="rgba(161,160,160,0.38)"/><stop id="eA403gX7pqm47-fill-1" offset="100%" stop-color="rgba(161,160,160,0)"/></radialGradient><radialGradient id="eA403gX7pqm51-fill" cx="0" cy="0" r="24.97" spreadMethod="pad" gradientUnits="userSpaceOnUse" gradientTransform="translate(472.34 215.4)"><stop id="eA403gX7pqm51-fill-0" offset="53%" stop-color="#dadada"/><stop id="eA403gX7pqm51-fill-1" offset="100%" stop-color="#cacbcc"/></radialGradient><radialGradient id="eA403gX7pqm52-fill" cx="0" cy="0" r="21.18" spreadMethod="pad" gradientUnits="userSpaceOnUse" gradientTransform="translate(474.81 222.45)"><stop id="eA403gX7pqm52-fill-0" offset="53%" stop-color="#bebebe"/><stop id="eA403gX7pqm52-fill-1" offset="100%" stop-color="#b0b0b1"/></radialGradient><linearGradient id="eA403gX7pqm54-fill" x1="483.62" y1="197.14" x2="499.92" y2="197.14" spreadMethod="pad" gradientUnits="userSpaceOnUse" gradientTransform="translate(0 0)"><stop id="eA403gX7pqm54-fill-0" offset="0%" stop-color="rgba(19,12,12,0)"/><stop id="eA403gX7pqm54-fill-1" offset="100%" stop-color="rgba(19,12,12,0.5)"/></linearGradient><radialGradient id="eA403gX7pqm57-fill" cx="0" cy="0" r="24.97" spreadMethod="pad" gradientUnits="userSpaceOnUse" gradientTransform="matrix(-1 0 0 1 227.66 215.4)"><stop id="eA403gX7pqm57-fill-0" offset="53%" stop-color="#dadada"/><stop id="eA403gX7pqm57-fill-1" offset="100%" stop-color="#cacbcc"/></radialGradient><radialGradient id="eA403gX7pqm58-fill" cx="0" cy="0" r="21.18" spreadMethod="pad" gradientUnits="userSpaceOnUse" gradientTransform="matrix(-1 0 0 1 225.18 222.45)"><stop id="eA403gX7pqm58-fill-0" offset="53%" stop-color="#bebebe"/><stop id="eA403gX7pqm58-fill-1" offset="100%" stop-color="#b0b0b1"/></radialGradient><linearGradient id="eA403gX7pqm60-fill" x1="216.37" y1="197.14" x2="200.08" y2="197.14" spreadMethod="pad" gradientUnits="userSpaceOnUse" gradientTransform="translate(0 0)"><stop id="eA403gX7pqm60-fill-0" offset="0%" stop-color="rgba(19,12,12,0)"/><stop id="eA403gX7pqm60-fill-1" offset="100%" stop-color="rgba(19,12,12,0.5)"/></linearGradient><linearGradient id="eA403gX7pqm62-fill" x1="350" y1="233.54" x2="350" y2="189.18" spreadMethod="pad" gradientUnits="userSpaceOnUse" gradientTransform="translate(0 0)"><stop id="eA403gX7pqm62-fill-0" offset="6%" stop-color="#e4e0e7"/><stop id="eA403gX7pqm62-fill-1" offset="53%" stop-color="#ededed"/><stop id="eA403gX7pqm62-fill-2" offset="100%" stop-color="#dedddf"/></linearGradient><radialGradient id="eA403gX7pqm64-fill" cx="0" cy="0" r="32.01" spreadMethod="pad" gradientUnits="userSpaceOnUse" gradientTransform="matrix(1 0 0 0.85 420.69 287.684)"><stop id="eA403gX7pqm64-fill-0" offset="53%" stop-color="#dadada"/><stop id="eA403gX7pqm64-fill-1" offset="100%" stop-color="#cacbcc"/></radialGradient><radialGradient id="eA403gX7pqm66-fill" cx="0" cy="0" r="32.01" spreadMethod="pad" gradientUnits="userSpaceOnUse" gradientTransform="matrix(-1 0 0 0.85 274.95 287.684)"><stop id="eA403gX7pqm66-fill-0" offset="53%" stop-color="#dadada"/><stop id="eA403gX7pqm66-fill-1" offset="100%" stop-color="#cacbcc"/></radialGradient><linearGradient id="eA403gX7pqm67-fill" x1="350" y1="255.35" x2="350" y2="225.92" spreadMethod="pad" gradientUnits="userSpaceOnUse" gradientTransform="translate(0 0)"><stop id="eA403gX7pqm67-fill-0" offset="6%" stop-color="#cac7cc"/><stop id="eA403gX7pqm67-fill-1" offset="84%" stop-color="#ededed"/><stop id="eA403gX7pqm67-fill-2" offset="100%" stop-color="#dbd6df"/></linearGradient><linearGradient id="eA403gX7pqm68-fill" x1="350" y1="284.96" x2="350" y2="250.75" spreadMethod="pad" gradientUnits="userSpaceOnUse" gradientTransform="translate(0 0)"><stop id="eA403gX7pqm68-fill-0" offset="40%" stop-color="#bebebe"/><stop id="eA403gX7pqm68-fill-1" offset="100%" stop-color="#979595"/></linearGradient><radialGradient id="eA403gX7pqm70-fill" cx="0" cy="0" r="82.49" spreadMethod="pad" gradientUnits="userSpaceOnUse" gradientTransform="translate(350 237.07)"><stop id="eA403gX7pqm70-fill-0" offset="0%" stop-color="#e4e0e7"/><stop id="eA403gX7pqm70-fill-1" offset="100%" stop-color="#dedddf"/></radialGradient><radialGradient id="eA403gX7pqm71-fill" cx="0" cy="0" r="47.08" spreadMethod="pad" gradientUnits="userSpaceOnUse" gradientTransform="translate(0 0)"><stop id="eA403gX7pqm71-fill-0" offset="53%" stop-color="#dadada"/><stop id="eA403gX7pqm71-fill-1" offset="100%" stop-color="#cacbcc"/></radialGradient><radialGradient id="eA403gX7pqm72-fill" cx="0" cy="0" r="40.8" spreadMethod="pad" gradientUnits="userSpaceOnUse" gradientTransform="translate(0 0)"><stop id="eA403gX7pqm72-fill-0" offset="53%" stop-color="#fafafa"/><stop id="eA403gX7pqm72-fill-1" offset="100%" stop-color="#e8eaeb"/></radialGradient><radialGradient id="eA403gX7pqm82-fill" cx="0" cy="0" r="7.21" spreadMethod="pad" gradientUnits="userSpaceOnUse" gradientTransform="matrix(-1 0 0 1 216.37 176.47)"><stop id="eA403gX7pqm82-fill-0" offset="53%" stop-color="#bebebe"/><stop id="eA403gX7pqm82-fill-1" offset="100%" stop-color="#b0b0b1"/></radialGradient><radialGradient id="eA403gX7pqm87-fill" cx="0" cy="0" r="7.21" spreadMethod="pad" gradientUnits="userSpaceOnUse" gradientTransform="matrix(-1 0 0 1 216.37 176.47)"><stop id="eA403gX7pqm87-fill-0" offset="53%" stop-color="#bebebe"/><stop id="eA403gX7pqm87-fill-1" offset="100%" stop-color="#b0b0b1"/></radialGradient></defs><g transform="matrix(2.008766 0 0 2.008766-47.54549 0.000002)"><rect width="399.365566" height="399.365566" rx="0" ry="0" transform="matrix(1.665645 0 0 1.665645 17.399371-132.917846)" fill="url(#eA403gX7pqm3-fill)" stroke-width="0"/><g transform="matrix(.68 0 0 0.68 111.999995 50.35784)"><g id="eA403gX7pqm45_to" transform="translate(149.999984,296.919236)"><g id="eA403gX7pqm45_ts" transform="scale(1,1)"><g id="eA403gX7pqm45" transform="translate(-149.999984,-296.919235)"><g id="eA403gX7pqm46" transform="matrix(1.5 0 0 1.5-375.030005-48.605728)" opacity="0"><ellipse rx="158.81" ry="22.37" transform="translate(350 331.19)" fill="url(#eA403gX7pqm47-fill)"/></g></g></g></g><g id="eA403gX7pqm48_to" transform="translate(149.999984,296.919236)"><g id="eA403gX7pqm48_tr" transform="rotate(0)"><g id="eA403gX7pqm48_ts" transform="scale(1,1)"><g transform="translate(-149.999984,-296.919235)"><g id="eA403gX7pqm49" transform="matrix(1.5 0 0 1.5-375.030005-48.605728)" opacity="0"><g><path d="M442,197.26c12,6.82,18.34,4.71,40.37,4.71c16,0,20.22,4.53,20.22,10.56s-7.55,13.28-22.94,12.37-21.12-3.31-27.75,8.64Z" fill="url(#eA403gX7pqm51-fill)"/><path d="M502.63,212.53c.000222-.387448-.019805-.774643-.06-1.16-4.93,4.2-17.52,6-26.49,4.93-10.57-1.2-20.9-2.56-29.09-.9l4.95,18.14c6.63-11.95,12.36-9.54,27.75-8.64s22.94-6.33,22.94-12.37Z" fill="url(#eA403gX7pqm52-fill)"/><path d="M483.62,178.13c-9,0-16.29,2.43-16.29,5.43v21.73c0,3,7.29,5.43,16.29,5.43s16.3-2.43,16.3-5.43v-21.73c0-3-7.3-5.43-16.3-5.43Z" fill="#4f5052"/><path d="M483.62,189c9,0,16.3-2.43,16.3-5.43v21.73c0,3-7.3,5.43-16.3,5.43Z" fill="url(#eA403gX7pqm54-fill)"/><ellipse rx="9.05" ry="3.02" transform="translate(483.62 183.56)" fill="#130c0c"/></g><g><path d="M258,197.26c-12,6.82-18.34,4.71-40.37,4.71-16,0-20.22,4.53-20.22,10.56s7.55,13.28,22.94,12.37s21.12-3.31,27.75,8.64Z" fill="url(#eA403gX7pqm57-fill)"/><path d="M197.37,212.53c-.000222-.387448.019805-.774643.06-1.16c4.93,4.2,17.52,6,26.49,4.93c10.57-1.2,20.9-2.56,29.09-.9l-4.95,18.14c-6.63-11.95-12.36-9.54-27.75-8.64s-22.94-6.33-22.94-12.37Z" fill="url(#eA403gX7pqm58-fill)"/><path d="M216.38,178.13c9,0,16.29,2.43,16.29,5.43v21.73c0,3-7.29,5.43-16.29,5.43s-16.3-2.43-16.3-5.43v-21.73c0-3,7.3-5.43,16.3-5.43Z" fill="#4f5052"/><path d="M216.38,189c-9,0-16.3-2.43-16.3-5.43v21.73c0,3,7.3,5.43,16.3,5.43Z" fill="url(#eA403gX7pqm60-fill)"/><ellipse rx="9.05" ry="3.02" transform="translate(216.38 183.56)" fill="#130c0c"/></g><path d="M435.1,195.21c-56.448482-8.040045-113.751518-8.040045-170.2,0-17.88,2.54-27.24,23-17.11,37.94l.27.39c66.868321-4.820483,135.605291-4.951746,203.88,0l.29-.42c10.1-14.96.77-35.37-17.13-37.91Z" fill="url(#eA403gX7pqm62-fill)"/><circle r="4.53" transform="translate(429.91 324.19)" fill="#130c0c"/><path d="M407,253.05c9,14.67,18.42,47.84,18.42,71.14h9.05c0,0-.61-35.22-10.11-69.52-8.36-7.4-17.36-1.62-17.36-1.62Z" fill="url(#eA403gX7pqm64-fill)"/><circle r="4.53" transform="translate(265.74 324.19)" fill="#130c0c"/><path d="M288.69,253.05c-9,14.67-18.42,47.84-18.42,71.14h-9.06c0,0,.62-35.22,10.12-69.52c8.29-7.4,17.36-1.62,17.36-1.62Z" fill="url(#eA403gX7pqm66-fill)"/><path d="M451.94,233.54c-67.580266-10.160064-136.299734-10.160064-203.88,0c5.83,8.35,27.34,22.45,27.63,21.79c49.354336-6.119984,99.275664-6.119984,148.63,0-.45.67,21.79-13.44,27.62-21.79Z" fill="url(#eA403gX7pqm67-fill)"/><path d="M424.32,255.33C399.64,258.39,383.8,285,350,285s-49.64-26.57-74.31-29.63c49.352689-6.133266,99.274017-6.146701,148.63-.04Z" fill="url(#eA403gX7pqm68-fill)"/><g><path style="mix-blend-mode:multiply" d="M435.1,195.21c-56.448482-8.040045-113.751518-8.040045-170.2,0-17.88,2.54-27.24,23-17.11,37.94l.27.39c5.83,8.35,27.34,22.45,27.63,21.79C300.36,258.39,316.2,285,350,285s49.64-26.57,74.32-29.63c-.45.66,21.79-13.44,27.62-21.79l.29-.42c10.1-15,.77-35.41-17.13-37.95ZM285.27,239.84c-6.32-3.09-15.29-7.21-15.86-9.17-9.5-1.06-16.4-7.77-16.4-14.11l-.08.06c.42-8.53,8.6-18.17,20.11-19.68c51.087933-6.7,102.832067-6.7,153.92,0c12,1.57,19.75,11.18,20.08,19.66h-.05c0,6.34-6.9,13.05-16.4,14.11-.57,2-9.5,6.06-15.82,9.15-23.37,8.8-53.58,12.73-64.77,12.73-24.82-.04-64.73-12.75-64.73-12.75Z" opacity="0.38" fill="url(#eA403gX7pqm70-fill)"/><circle r="47.08" transform="translate(350 234.26)" fill="url(#eA403gX7pqm71-fill)"/><circle r="40.8" transform="translate(350 234.26)" fill="url(#eA403gX7pqm72-fill)"/><path d="M327,234.88c0,13,11,22.26,23,22.26s23-9.27,23-22.26c0,13.89-6.18,26.09-23,26.09s-23-12.2-23-26.09Z" fill="#fff"/><circle r="21.73" transform="translate(350 234.26)" fill="#312a2a"/><circle r="12.67" transform="translate(350 234.26)" fill="#130c0c"/><path d="M337.33,234.26c.270291,6.801726,5.862906,12.176512,12.67,12.176512s12.399709-5.374786,12.67-12.176512c0,7.66-5.07,13.3-12.67,13.3s-12.67-5.64-12.67-13.3Z" fill="#4f5052"/></g><circle r="2.64" transform="translate(346.01 229.88)" fill="#a1a0a0"/></g><g id="eA403gX7pqm78_ts" transform="translate(350.000008,220.000008) scale(1,1)"><g transform="translate(-350.000008,-220.000008)"><g id="eA403gX7pqm79_tr" transform="translate(349.999992,219.999977) rotate(0)"><g transform="scale(1.1,1.1) translate(-349.999992,-199.999977)"><path d="M320.56,145.26c11.39,8,10.19,21.13,10.3,22.87.268928,4.553004,2.201365,8.848496,5.43,12.07l38.28,38.29l21.8,17.89c9.3,7.64,9.55,8.52,58.65,61.71c2.506403,2.719776,2.422598,6.932068-.19,9.55l-75.39-52.9c-11.39-8-10.19-21.13-10.3-22.87-.268928-4.553004-2.201365-8.848496-5.43-12.07l-38.28-38.29-21.8-17.89c-9.3-7.64-9.55-8.52-58.65-61.71-2.506403-2.719776-2.422598-6.932068.19-9.55Z" fill="#130c0c"/><path d="M295.26,229.44c8-11.39,21.13-10.19,22.87-10.3c4.553004-.268928,8.848496-2.201365,12.07-5.43l38.29-38.28l17.89-21.8c7.64-9.3,8.52-9.55,61.71-58.65c2.719776-2.506403,6.932068-2.422598,9.55.19l-52.9,75.39c-8,11.39-21.13,10.19-22.87,10.3-4.553004.268928-8.848496,2.201365-12.07,5.43l-38.29,38.28-17.89,21.8c-7.64,9.3-8.52,9.55-61.71,58.65-2.719776,2.506403-6.932068,2.422598-9.55-.19Z" fill="#130c0c"/></g></g><path id="eA403gX7pqm82" d="M207.33,178.13c0,1.67,4,3,9,3s9.05-1.35,9.05-3-3.55-6.34-9.05-6.34-9,4.67-9,6.34Z" transform="matrix(1.4 0 0 5.6 47.107999-784.363456)" opacity="0" fill="url(#eA403gX7pqm82-fill)"/></g></g><g id="eA403gX7pqm83" transform="matrix(1.000001 0 0 0.25-400.497864 165.000006)" opacity="0"><g id="eA403gX7pqm84_tr" transform="translate(349.999992,219.999977) rotate(720)"><g transform="scale(1.1,1.1) translate(-349.999992,-199.999977)"><path d="M320.56,145.26c11.39,8,10.19,21.13,10.3,22.87.268928,4.553004,2.201365,8.848496,5.43,12.07l38.28,38.29l21.8,17.89c9.3,7.64,9.55,8.52,58.65,61.71c2.506403,2.719776,2.422598,6.932068-.19,9.55l-75.39-52.9c-11.39-8-10.19-21.13-10.3-22.87-.268928-4.553004-2.201365-8.848496-5.43-12.07l-38.28-38.29-21.8-17.89c-9.3-7.64-9.55-8.52-58.65-61.71-2.506403-2.719776-2.422598-6.932068.19-9.55Z" fill="#130c0c"/><path d="M295.26,229.44c8-11.39,21.13-10.19,22.87-10.3c4.553004-.268928,8.848496-2.201365,12.07-5.43l38.29-38.28l17.89-21.8c7.64-9.3,8.52-9.55,61.71-58.65c2.719776-2.506403,6.932068-2.422598,9.55.19l-52.9,75.39c-8,11.39-21.13,10.19-22.87,10.3-4.553004.268928-8.848496,2.201365-12.07,5.43l-38.29,38.28-17.89,21.8c-7.64,9.3-8.52,9.55-61.71,58.65-2.719776,2.506403-6.932068,2.422598-9.55-.19Z" fill="#130c0c"/></g></g><path d="M207.33,178.13c0,1.67,4,3,9,3s9.05-1.35,9.05-3-3.55-6.34-9.05-6.34-9,4.67-9,6.34Z" transform="matrix(1.4 0 0 5.6 47.107999-784.363456)" fill="url(#eA403gX7pqm87-fill)"/></g></g></g></g></g><g id="eA403gX7pqm88" opacity="0"><g id="eA403gX7pqm89_to" transform="translate(149.969995,152.26)"><path d="M158.54,126.32L135.1,95.7l-23.43,30.62h46.87Z" transform="translate(-135.074995,-126.32)" opacity="0" fill="#aeaeae"/></g><g id="eA403gX7pqm90_ts" transform="translate(149.999996,220.000005) scale(1,1)"><path d="M141.34,263.801272v-139.472544h-12.47v139.472544h12.47Z" transform="translate(-135.104996,-194.060005)" opacity="0" fill="#aeaeae"/></g><g id="eA403gX7pqm91_to" transform="translate(150,287.75)"><path d="M111.67,261.81l23.43,30.61l23.44-30.61h-46.87Z" transform="translate(-135.105,-261.81)" opacity="0" fill="#aeaeae"/></g></g><g id="eA403gX7pqm92_to" transform="translate(350.000003,220.000027)"><g id="eA403gX7pqm92" transform="scale(2.17,2.17) translate(-322.668991,-251.914222)" opacity="0"><rect id="eA403gX7pqm93" width="109.476732" height="109.476732" rx="0" ry="0" transform="translate(267.930623 197.175843)" fill="none" stroke="#4a87ff"/><ellipse rx="3.552836" ry="3.552836" transform="translate(377.407355 197.341323)" fill="#fff" stroke="#4a87ff"/><ellipse rx="3.552836" ry="3.552836" transform="translate(267.930623 197.175843)" fill="#fff" stroke="#4a87ff"/><g id="eA403gX7pqm96_to" transform="translate(322.668989,306.652575)"><g transform="translate(-322.668989,-306.652575)"><ellipse rx="3.552836" ry="3.552836" transform="translate(266.789028 306.652575)" fill="#fff" stroke="#4a87ff"/><ellipse rx="3.552836" ry="3.552836" transform="translate(377.407355 306.652575)" fill="#fff" stroke="#4a87ff"/><ellipse rx="1.141595" ry="1.141595" transform="translate(263.236192 311.347006)" fill="#fff" stroke="#4a87ff"/><ellipse rx="1.141595" ry="1.141595" transform="translate(382.101786 311.347006)" fill="#fff" stroke="#4a87ff"/><ellipse rx="3.552836" ry="3.552836" transform="translate(322.668989 306.470113)" fill="#fff" stroke="#4a87ff"/></g></g><ellipse rx="1.141595" ry="1.141595" transform="translate(263.236192 192.481412)" fill="#fff" stroke="#4a87ff"/><ellipse rx="1.141595" ry="1.141595" transform="translate(382.101786 192.646892)" fill="#fff" stroke="#4a87ff"/><g id="eA403gX7pqm104_to" transform="translate(377.407355,251.914209)"><ellipse rx="3.552836" ry="3.552836" transform="translate(0,0)" fill="#fff" stroke="#4a87ff"/></g><g id="eA403gX7pqm105_to" transform="translate(268.113085,251.914205)"><ellipse rx="3.552836" ry="3.552836" transform="translate(0,0)" fill="#fff" stroke="#4a87ff"/></g><ellipse rx="3.552836" ry="3.552836" transform="translate(322.668981 197.666735)" fill="#fff" stroke="#4a87ff"/><g id="eA403gX7pqm107_to" transform="translate(322.668989,251.914209)"><g transform="translate(-303.527466,-228.272805)"><ellipse rx="2.855" ry="2.855" transform="translate(303.527462 228.272813)" fill="#929292" stroke-width="0.6"/><line x1="0" y1="-3.552836" x2="0" y2="3.552836" transform="matrix(0 1-1 0 303.527462 228.272814)" fill="none" stroke="#000" stroke-width="1.2"/><line x1="0" y1="-3.552836" x2="0" y2="3.552836" transform="translate(303.527462 228.272814)" fill="none" stroke="#000" stroke-width="1.2"/><ellipse rx="1.357384" ry="1.357384" transform="translate(303.527462 228.272813)" fill="#fff" stroke-width="0.6"/></g></g></g></g></g></g></svg>